<svg xmlns="http://www.w3.org/2000/svg" width="502" height="69"><svg id="barcodeSVG" role="img" aria-label="Barcode preview" width="500px" height="67px" x="0px" y="0px" viewBox="0 0 500 67" xmlns="http://www.w3.org/2000/svg" version="1.1" style="transform: translate(0,0)"><rect x="0" y="0" width="500" height="67" style="fill:transparent;"/><g transform="translate(10, 10)" style="fill:#0b2783;"><rect x="0" y="0" width="2" height="47"/><rect x="8" y="0" width="2" height="47"/><rect x="12" y="0" width="6" height="47"/><rect x="20" y="0" width="6" height="47"/><rect x="28" y="0" width="2" height="47"/><rect x="32" y="0" width="2" height="47"/><rect x="36" y="0" width="6" height="47"/><rect x="48" y="0" width="6" height="47"/><rect x="56" y="0" width="2" height="47"/><rect x="60" y="0" width="2" height="47"/><rect x="64" y="0" width="2" height="47"/><rect x="68" y="0" width="2" height="47"/><rect x="76" y="0" width="6" height="47"/><rect x="84" y="0" width="2" height="47"/><rect x="88" y="0" width="6" height="47"/><rect x="96" y="0" width="2" height="47"/><rect x="100" y="0" width="2" height="47"/><rect x="108" y="0" width="6" height="47"/><rect x="116" y="0" width="6" height="47"/><rect x="124" y="0" width="2" height="47"/><rect x="128" y="0" width="6" height="47"/><rect x="136" y="0" width="2" height="47"/><rect x="144" y="0" width="6" height="47"/><rect x="152" y="0" width="2" height="47"/><rect x="156" y="0" width="2" height="47"/><rect x="160" y="0" width="2" height="47"/><rect x="164" y="0" width="2" height="47"/><rect x="172" y="0" width="6" height="47"/><rect x="180" y="0" width="6" height="47"/><rect x="188" y="0" width="2" height="47"/><rect x="192" y="0" width="2" height="47"/><rect x="196" y="0" width="6" height="47"/><rect x="208" y="0" width="2" height="47"/><rect x="212" y="0" width="6" height="47"/><rect x="220" y="0" width="2" height="47"/><rect x="224" y="0" width="2" height="47"/><rect x="232" y="0" width="2" height="47"/><rect x="236" y="0" width="2" height="47"/><rect x="240" y="0" width="6" height="47"/><rect x="248" y="0" width="6" height="47"/><rect x="256" y="0" width="2" height="47"/><rect x="260" y="0" width="2" height="47"/><rect x="268" y="0" width="6" height="47"/><rect x="276" y="0" width="6" height="47"/><rect x="284" y="0" width="2" height="47"/><rect x="288" y="0" width="2" height="47"/><rect x="292" y="0" width="2" height="47"/><rect x="300" y="0" width="6" height="47"/><rect x="308" y="0" width="2" height="47"/><rect x="312" y="0" width="6" height="47"/><rect x="320" y="0" width="2" height="47"/><rect x="324" y="0" width="2" height="47"/><rect x="332" y="0" width="6" height="47"/><rect x="340" y="0" width="6" height="47"/><rect x="348" y="0" width="2" height="47"/><rect x="352" y="0" width="6" height="47"/><rect x="360" y="0" width="2" height="47"/><rect x="368" y="0" width="2" height="47"/><rect x="372" y="0" width="2" height="47"/><rect x="376" y="0" width="6" height="47"/><rect x="384" y="0" width="2" height="47"/><rect x="388" y="0" width="2" height="47"/><rect x="396" y="0" width="6" height="47"/><rect x="404" y="0" width="2" height="47"/><rect x="408" y="0" width="6" height="47"/><rect x="416" y="0" width="2" height="47"/><rect x="420" y="0" width="2" height="47"/><rect x="428" y="0" width="2" height="47"/><rect x="432" y="0" width="6" height="47"/><rect x="440" y="0" width="6" height="47"/><rect x="448" y="0" width="2" height="47"/><rect x="456" y="0" width="2" height="47"/><rect x="460" y="0" width="6" height="47"/><rect x="468" y="0" width="6" height="47"/><rect x="476" y="0" width="2" height="47"/></g></svg></svg>