<svg xmlns="http://www.w3.org/2000/svg" width="244" height="74"><svg id="barcodeSVG" role="img" aria-label="Barcode preview" width="242px" height="72px" x="0px" y="0px" viewBox="0 0 242 72" xmlns="http://www.w3.org/2000/svg" version="1.1" style="transform: translate(0,0)"><rect x="0" y="0" width="242" height="72" style="fill:transparent;"/><g transform="translate(10, 10)" style="fill:#0b2783;"><text style="font: 20px monospace" text-anchor="start" x="0" y="52">0</text></g><g transform="translate(26, 10)" style="fill:#0b2783;"><rect x="0" y="0" width="2" height="42"/><rect x="4" y="0" width="2" height="42"/><rect x="12" y="0" width="4" height="42"/><rect x="18" y="0" width="2" height="42"/><text style="font: 20px monospace" text-anchor="middle" x="10" y="64"></text></g><g transform="translate(46, 10)" style="fill:#0b2783;"><rect x="2" y="0" width="6" height="30"/><rect x="10" y="0" width="4" height="30"/><rect x="20" y="0" width="4" height="30"/><rect x="26" y="0" width="2" height="30"/><rect x="30" y="0" width="4" height="30"/><rect x="36" y="0" width="6" height="30"/><rect x="44" y="0" width="2" height="30"/><rect x="52" y="0" width="4" height="30"/><rect x="58" y="0" width="6" height="30"/><rect x="66" y="0" width="4" height="30"/><text style="font: 20px monospace" text-anchor="middle" x="35" y="52">70847</text></g><g transform="translate(116, 10)" style="fill:#0b2783;"><rect x="2" y="0" width="2" height="42"/><rect x="6" y="0" width="2" height="42"/><text style="font: 20px monospace" text-anchor="middle" x="5" y="64"></text></g><g transform="translate(126, 10)" style="fill:#0b2783;"><rect x="0" y="0" width="6" height="30"/><rect x="10" y="0" width="2" height="30"/><rect x="14" y="0" width="4" height="30"/><rect x="22" y="0" width="4" height="30"/><rect x="28" y="0" width="4" height="30"/><rect x="34" y="0" width="4" height="30"/><rect x="42" y="0" width="2" height="30"/><rect x="46" y="0" width="6" height="30"/><rect x="56" y="0" width="2" height="30"/><rect x="64" y="0" width="2" height="30"/><text style="font: 20px monospace" text-anchor="middle" x="35" y="52">01247</text></g><g transform="translate(196, 10)" style="fill:#0b2783;"><rect x="0" y="0" width="2" height="42"/><rect x="4" y="0" width="6" height="42"/><rect x="14" y="0" width="2" height="42"/><rect x="18" y="0" width="2" height="42"/><text style="font: 20px monospace" text-anchor="middle" x="10" y="64"></text></g><g transform="translate(216, 10)" style="fill:#0b2783;"><text style="font: 20px monospace" text-anchor="end" x="15" y="52">4</text></g></svg></svg>