<svg id="barcodeSVG" role="img" aria-role="presentation" width="210px" height="62px" x="0px" y="0px" viewBox="0 0 210 62" xmlns="http://www.w3.org/2000/svg" version="1.1" style="transform: translate(0,0)"><rect x="0" y="0" width="210" height="62" style="fill:transparent;"/><g transform="translate(10, 10)" style="fill:#0b2783;"><rect x="0" y="0" width="2" height="42"/><rect x="4" y="0" width="2" height="42"/><rect x="12" y="0" width="4" height="42"/><rect x="18" y="0" width="2" height="42"/></g><g transform="translate(30, 10)" style="fill:#0b2783;"><rect x="2" y="0" width="6" height="30"/><rect x="10" y="0" width="4" height="30"/><rect x="20" y="0" width="4" height="30"/><rect x="26" y="0" width="2" height="30"/><rect x="30" y="0" width="4" height="30"/><rect x="36" y="0" width="6" height="30"/><rect x="44" y="0" width="2" height="30"/><rect x="52" y="0" width="4" height="30"/><rect x="58" y="0" width="6" height="30"/><rect x="66" y="0" width="4" height="30"/></g><g transform="translate(100, 10)" style="fill:#0b2783;"><rect x="2" y="0" width="2" height="42"/><rect x="6" y="0" width="2" height="42"/></g><g transform="translate(110, 10)" style="fill:#0b2783;"><rect x="0" y="0" width="6" height="30"/><rect x="10" y="0" width="2" height="30"/><rect x="14" y="0" width="4" height="30"/><rect x="22" y="0" width="4" height="30"/><rect x="28" y="0" width="4" height="30"/><rect x="34" y="0" width="4" height="30"/><rect x="42" y="0" width="2" height="30"/><rect x="46" y="0" width="6" height="30"/><rect x="56" y="0" width="2" height="30"/><rect x="64" y="0" width="2" height="30"/></g><g transform="translate(180, 10)" style="fill:#0b2783;"><rect x="0" y="0" width="2" height="42"/><rect x="4" y="0" width="6" height="42"/><rect x="14" y="0" width="2" height="42"/><rect x="18" y="0" width="2" height="42"/></g></svg>